<?xml version="1.0" encoding="UTF-8"?>
<svg xmlns="http://www.w3.org/2000/svg" xmlns:xlink="http://www.w3.org/1999/xlink" width="60pt" height="60pt" viewBox="0 0 60 60" version="1.1">
<g id="surface1">
<path style=" stroke:none;fill-rule:nonzero;fill:rgb(92.156863%,33.333333%,41.176471%);fill-opacity:1;" d="M 59.984375 27.492188 C 60.203125 30.328125 58.207031 32.847656 55.53125 33.113281 C 53.480469 33.320312 51.625 32.148438 50.765625 30.316406 L 48.335938 30.53125 L 46.5 31.414062 C 46.082031 31.617188 45.800781 32.019531 45.734375 32.480469 C 45.5625 33.722656 45.246094 34.917969 44.808594 36.054688 C 44.660156 36.4375 44.6875 36.867188 44.890625 37.226562 L 45.542969 38.398438 L 47.359375 39.617188 C 48.320312 39.25 49.433594 39.339844 50.351562 39.953125 C 51.90625 40.996094 52.28125 43.144531 51.125 44.65625 C 50.128906 45.960938 48.277344 46.316406 46.867188 45.480469 C 45.96875 44.949219 45.429688 44.0625 45.296875 43.121094 L 43.28125 41.769531 L 42.011719 41.613281 C 41.578125 41.5625 41.144531 41.710938 40.828125 42.015625 C 39.757812 43.03125 38.546875 43.910156 37.234375 44.609375 C 36.792969 44.84375 36.507812 45.296875 36.476562 45.796875 L 36.316406 48.363281 L 37.113281 51.527344 C 38.472656 51.90625 39.59375 52.980469 39.960938 54.445312 C 40.519531 56.660156 39.144531 58.902344 36.902344 59.402344 C 34.882812 59.851562 32.808594 58.675781 32.164062 56.703125 C 31.664062 55.167969 32.125 53.578125 33.183594 52.539062 L 32.378906 49.355469 L 31.144531 47.367188 C 30.8125 46.832031 30.226562 46.515625 29.597656 46.519531 C 29.59375 46.519531 29.589844 46.519531 29.585938 46.519531 C 28.503906 46.519531 27.441406 46.410156 26.417969 46.210938 C 25.808594 46.085938 25.175781 46.28125 24.75 46.734375 L 23.113281 48.457031 L 21.285156 52.253906 C 21.710938 53.125 21.75 54.175781 21.296875 55.117188 C 20.484375 56.808594 18.40625 57.476562 16.746094 56.542969 C 15.324219 55.742188 14.707031 53.976562 15.328125 52.464844 C 15.75 51.433594 16.625 50.746094 17.613281 50.515625 L 19.457031 46.695312 L 19.816406 44.128906 C 19.882812 43.65625 19.703125 43.179688 19.332031 42.878906 C 17.867188 41.691406 16.609375 40.257812 15.628906 38.636719 C 15.382812 38.234375 14.945312 37.992188 14.476562 37.988281 L 11.914062 37.960938 L 9.113281 38.84375 C 8.914062 40.585938 7.722656 42.136719 5.941406 42.695312 C 3.546875 43.449219 1 42.132812 0.222656 39.757812 C -0.554688 37.378906 0.757812 34.78125 3.132812 33.996094 C 4.792969 33.445312 6.539062 33.902344 7.722656 35.027344 L 10.695312 34.089844 L 12.871094 32.542969 C 13.191406 32.3125 13.363281 31.929688 13.332031 31.535156 C 13.296875 31.097656 13.277344 30.65625 13.277344 30.210938 C 13.277344 27.789062 13.8125 25.488281 14.761719 23.421875 C 14.902344 23.117188 14.898438 22.769531 14.75 22.46875 L 14.105469 21.152344 L 12.359375 19.835938 C 11.382812 20.148438 10.273438 19.996094 9.390625 19.332031 C 7.894531 18.203125 7.644531 16.039062 8.882812 14.59375 C 9.949219 13.347656 11.816406 13.09375 13.175781 14.007812 C 14.042969 14.589844 14.535156 15.5 14.617188 16.453125 L 16.550781 17.914062 L 18.503906 18.261719 C 19.925781 16.941406 21.578125 15.875 23.398438 15.125 L 23.855469 12.339844 L 23.277344 9.464844 C 21.566406 9.023438 20.179688 7.714844 19.804688 5.964844 C 19.277344 3.496094 20.972656 1.089844 23.597656 0.59375 C 26.21875 0.0976562 28.769531 1.695312 29.296875 4.164062 C 29.695312 6.011719 28.84375 7.824219 27.289062 8.828125 L 27.835938 11.539062 L 29.175781 13.679688 C 29.265625 13.820312 29.417969 13.902344 29.582031 13.902344 L 29.585938 13.902344 C 32.65625 13.902344 35.53125 14.757812 37.988281 16.242188 C 38.121094 16.320312 38.289062 16.332031 38.429688 16.265625 L 40.53125 15.292969 L 42.984375 12.640625 C 42.835938 11.6875 43.105469 10.679688 43.8125 9.917969 C 45.082031 8.542969 47.261719 8.507812 48.578125 9.886719 C 49.730469 11.09375 49.777344 13.019531 48.679688 14.277344 C 47.972656 15.09375 46.957031 15.472656 45.964844 15.398438 L 43.511719 18.050781 L 42.714844 20.191406 C 42.660156 20.339844 42.683594 20.503906 42.777344 20.632812 C 43.742188 21.960938 44.515625 23.441406 45.046875 25.027344 C 45.195312 25.464844 45.542969 25.804688 45.984375 25.929688 L 47.980469 26.484375 L 50.570312 26.257812 C 51.203125 24.425781 52.789062 23.039062 54.738281 22.84375 C 57.417969 22.574219 59.765625 24.65625 59.984375 27.492188 Z M 59.984375 27.492188 "/>
<path style=" stroke:none;fill-rule:nonzero;fill:rgb(96.078431%,54.117647%,59.215686%);fill-opacity:1;" d="M 41.660156 30.210938 C 41.660156 36.878906 36.253906 42.285156 29.585938 42.285156 C 22.917969 42.285156 17.511719 36.878906 17.511719 30.210938 C 17.511719 23.542969 22.917969 18.136719 29.585938 18.136719 C 36.253906 18.136719 41.660156 23.542969 41.660156 30.210938 Z M 41.660156 30.210938 "/>
<path style=" stroke:none;fill-rule:nonzero;fill:rgb(94.117647%,44.705882%,50.588235%);fill-opacity:1;" d="M 21.191406 30.210938 C 21.191406 24.167969 25.628906 19.160156 31.425781 18.273438 C 30.828125 18.183594 30.210938 18.136719 29.585938 18.136719 C 22.917969 18.136719 17.511719 23.542969 17.511719 30.210938 C 17.511719 36.878906 22.917969 42.285156 29.585938 42.285156 C 30.210938 42.285156 30.828125 42.238281 31.425781 42.148438 C 25.628906 41.261719 21.191406 36.253906 21.191406 30.210938 Z M 21.191406 30.210938 "/>
<path style=" stroke:none;fill-rule:nonzero;fill:rgb(92.156863%,33.333333%,41.176471%);fill-opacity:1;" d="M 12.707031 4.820312 C 12.707031 6.71875 11.167969 8.257812 9.269531 8.257812 C 7.371094 8.257812 5.828125 6.71875 5.828125 4.820312 C 5.828125 2.921875 7.371094 1.378906 9.269531 1.378906 C 11.167969 1.378906 12.707031 2.921875 12.707031 4.820312 Z M 12.707031 4.820312 "/>
<path style=" stroke:none;fill-rule:nonzero;fill:rgb(92.156863%,33.333333%,41.176471%);fill-opacity:1;" d="M 10.601562 50.148438 C 10.601562 51.402344 9.582031 52.417969 8.328125 52.417969 C 7.074219 52.417969 6.058594 51.402344 6.058594 50.148438 C 6.058594 48.890625 7.074219 47.875 8.328125 47.875 C 9.582031 47.875 10.601562 48.890625 10.601562 50.148438 Z M 10.601562 50.148438 "/>
<path style=" stroke:none;fill-rule:nonzero;fill:rgb(92.156863%,33.333333%,41.176471%);fill-opacity:1;" d="M 53.375 53.878906 C 53.375 55.726562 51.878906 57.222656 50.03125 57.222656 C 48.183594 57.222656 46.6875 55.726562 46.6875 53.878906 C 46.6875 52.03125 48.183594 50.53125 50.03125 50.53125 C 51.878906 50.53125 53.375 52.03125 53.375 53.878906 Z M 53.375 53.878906 "/>
<path style=" stroke:none;fill-rule:nonzero;fill:rgb(92.156863%,33.333333%,41.176471%);fill-opacity:1;" d="M 29 26.878906 C 29 28.601562 27.601562 30 25.878906 30 C 24.15625 30 22.761719 28.601562 22.761719 26.878906 C 22.761719 25.160156 24.15625 23.761719 25.878906 23.761719 C 27.601562 23.761719 29 25.160156 29 26.878906 Z M 29 26.878906 "/>
<path style=" stroke:none;fill-rule:nonzero;fill:rgb(92.156863%,33.333333%,41.176471%);fill-opacity:1;" d="M 30.507812 36.570312 C 30.507812 37.742188 29.554688 38.691406 28.382812 38.691406 C 27.210938 38.691406 26.261719 37.742188 26.261719 36.570312 C 26.261719 35.394531 27.210938 34.445312 28.382812 34.445312 C 29.554688 34.445312 30.507812 35.394531 30.507812 36.570312 Z M 30.507812 36.570312 "/>
<path style=" stroke:none;fill-rule:nonzero;fill:rgb(92.156863%,33.333333%,41.176471%);fill-opacity:1;" d="M 36.832031 30.210938 C 36.832031 31.195312 36.035156 31.992188 35.050781 31.992188 C 34.066406 31.992188 33.265625 31.195312 33.265625 30.210938 C 33.265625 29.226562 34.066406 28.429688 35.050781 28.429688 C 36.035156 28.429688 36.832031 29.226562 36.832031 30.210938 Z M 36.832031 30.210938 "/>
</g>
</svg>
